<svg xmlns="http://www.w3.org/2000/svg" xmlns:xlink="http://www.w3.org/1999/xlink" width="500" zoomAndPan="magnify" viewBox="0 0 375 374.999991" height="500" preserveAspectRatio="xMidYMid meet" version="1.0"><defs><filter x="0%" y="0%" width="100%" height="100%" id="a381931d86"><feColorMatrix values="0 0 0 0 1 0 0 0 0 1 0 0 0 0 1 0 0 0 1 0" color-interpolation-filters="sRGB"/></filter><mask id="3436918e58"><g filter="url(#a381931d86)"><rect x="-37.5" width="450" fill="#000000" y="-37.499999" height="449.999989" fill-opacity="0.74"/></g></mask><clipPath id="dada21102b"><path d="M 0 0.25 L 375 0.25 L 375 112.75 L 0 112.75 Z M 0 0.25 " clip-rule="nonzero"/></clipPath><clipPath id="6dcfc9dea6"><path d="M 36.75 0.25 L 338.25 0.25 C 358.546875 0.25 375 16.703125 375 37 L 375 76 C 375 96.296875 358.546875 112.75 338.25 112.75 L 36.75 112.75 C 16.453125 112.75 0 96.296875 0 76 L 0 37 C 0 16.703125 16.453125 0.25 36.75 0.25 Z M 36.75 0.25 " clip-rule="nonzero"/></clipPath><clipPath id="585d87d35e"><rect x="0" width="375" y="0" height="113"/></clipPath></defs><g mask="url(#3436918e58)"><g transform="matrix(1, 0, 0, 1, 0, 131)"><g clip-path="url(#585d87d35e)"><g clip-path="url(#dada21102b)"><g clip-path="url(#6dcfc9dea6)"><path fill="#e4e2df" d="M 0 0.25 L 374.851562 0.25 L 374.851562 112.75 L 0 112.75 Z M 0 0.25 " fill-opacity="1" fill-rule="nonzero"/></g></g></g></g></g></svg>