<svg xmlns="http://www.w3.org/2000/svg" xmlns:xlink="http://www.w3.org/1999/xlink" width="40" zoomAndPan="magnify" viewBox="0 0 30 30.000001" height="40" preserveAspectRatio="xMidYMid meet" version="1.0"><path fill="#ffffff" d="M 5.675781 22.128906 L 13.289062 14.515625 L 5.675781 6.902344 C 5.566406 6.789062 5.480469 6.660156 5.421875 6.511719 C 5.363281 6.363281 5.335938 6.210938 5.335938 6.054688 C 5.339844 5.894531 5.371094 5.742188 5.429688 5.59375 C 5.492188 5.449219 5.578125 5.320312 5.691406 5.207031 C 5.804688 5.097656 5.933594 5.007812 6.078125 4.949219 C 6.226562 4.886719 6.378906 4.855469 6.535156 4.855469 C 6.695312 4.851562 6.847656 4.882812 6.996094 4.941406 C 7.144531 5 7.273438 5.082031 7.386719 5.191406 L 15 12.804688 L 22.613281 5.191406 C 22.726562 5.078125 22.855469 4.984375 23.003906 4.921875 C 23.152344 4.859375 23.308594 4.824219 23.472656 4.824219 C 23.632812 4.824219 23.789062 4.851562 23.941406 4.914062 C 24.089844 4.976562 24.222656 5.0625 24.339844 5.179688 C 24.453125 5.292969 24.539062 5.425781 24.601562 5.574219 C 24.664062 5.726562 24.695312 5.882812 24.691406 6.042969 C 24.691406 6.207031 24.65625 6.363281 24.59375 6.511719 C 24.53125 6.660156 24.441406 6.789062 24.324219 6.902344 L 16.710938 14.515625 L 24.324219 22.128906 C 24.441406 22.242188 24.53125 22.371094 24.59375 22.519531 C 24.65625 22.671875 24.691406 22.824219 24.691406 22.988281 C 24.695312 23.152344 24.664062 23.308594 24.601562 23.457031 C 24.539062 23.605469 24.453125 23.738281 24.339844 23.855469 C 24.222656 23.96875 24.089844 24.058594 23.941406 24.117188 C 23.789062 24.179688 23.632812 24.210938 23.472656 24.207031 C 23.308594 24.207031 23.152344 24.175781 23.003906 24.109375 C 22.855469 24.046875 22.726562 23.957031 22.613281 23.839844 L 15 16.226562 L 7.386719 23.839844 C 7.273438 23.949219 7.144531 24.035156 6.996094 24.09375 C 6.847656 24.152344 6.695312 24.179688 6.535156 24.179688 C 6.378906 24.175781 6.226562 24.144531 6.078125 24.085938 C 5.933594 24.023438 5.804688 23.9375 5.691406 23.824219 C 5.578125 23.710938 5.492188 23.582031 5.429688 23.4375 C 5.371094 23.289062 5.339844 23.136719 5.335938 22.980469 C 5.335938 22.820312 5.363281 22.667969 5.421875 22.519531 C 5.480469 22.375 5.566406 22.242188 5.675781 22.128906 Z M 5.675781 22.128906 " fill-opacity="1" fill-rule="nonzero"/></svg>