<svg xmlns="http://www.w3.org/2000/svg" xmlns:xlink="http://www.w3.org/1999/xlink" width="500" zoomAndPan="magnify" viewBox="0 0 375 374.999991" height="500" preserveAspectRatio="xMidYMid meet" version="1.0"><defs><g/><clipPath id="7057988844"><path d="M 289.605469 313.589844 L 337.5 313.589844 L 337.5 361.484375 L 289.605469 361.484375 Z M 289.605469 313.589844 " clip-rule="nonzero"/></clipPath><clipPath id="1dd19880d4"><path d="M 313.550781 313.589844 C 300.328125 313.589844 289.605469 324.3125 289.605469 337.539062 C 289.605469 350.765625 300.328125 361.484375 313.550781 361.484375 C 326.777344 361.484375 337.5 350.765625 337.5 337.539062 C 337.5 324.3125 326.777344 313.589844 313.550781 313.589844 Z M 313.550781 313.589844 " clip-rule="nonzero"/></clipPath></defs><g clip-path="url(#7057988844)"><g clip-path="url(#1dd19880d4)"><path fill="#f5f4ff" d="M 289.605469 313.589844 L 337.5 313.589844 L 337.5 361.484375 L 289.605469 361.484375 Z M 289.605469 313.589844 " fill-opacity="1" fill-rule="nonzero"/></g></g><g fill="#f5f4ff" fill-opacity="1"><g transform="translate(96.042396, 356.234362)"><g><path d="M 14.828125 -335.109375 L 117.8125 -335.109375 C 134.195312 -335.109375 146.875 -331.398438 155.84375 -323.984375 C 164.820312 -316.578125 170.867188 -306.175781 173.984375 -292.78125 C 177.109375 -279.382812 178.671875 -262.285156 178.671875 -241.484375 C 178.671875 -222.492188 176.195312 -207.664062 171.25 -197 C 166.3125 -186.34375 157.734375 -178.929688 145.515625 -174.765625 C 155.648438 -172.679688 162.992188 -167.609375 167.546875 -159.546875 C 172.097656 -151.492188 174.375 -140.570312 174.375 -126.78125 L 173.59375 0 L 108.0625 0 L 108.0625 -131.078125 C 108.0625 -140.441406 106.238281 -146.421875 102.59375 -149.015625 C 98.957031 -151.617188 92.328125 -152.921875 82.703125 -152.921875 L 82.703125 0 L 14.828125 0 Z M 99.09375 -211.046875 C 108.445312 -211.046875 113.125 -221.191406 113.125 -241.484375 C 113.125 -250.316406 112.734375 -256.941406 111.953125 -261.359375 C 111.179688 -265.785156 109.753906 -268.84375 107.671875 -270.53125 C 105.585938 -272.226562 102.597656 -273.078125 98.703125 -273.078125 L 83.09375 -273.078125 L 83.09375 -211.046875 Z M 99.09375 -211.046875 "/></g></g></g></svg>