<svg xmlns="http://www.w3.org/2000/svg" xmlns:xlink="http://www.w3.org/1999/xlink" width="500" zoomAndPan="magnify" viewBox="0 0 375 374.999991" height="500" preserveAspectRatio="xMidYMid meet" version="1.0"><defs><g/><clipPath id="8de6552df8"><path d="M 0 0 L 375 0 L 375 371.917969 L 0 371.917969 Z M 0 0 " clip-rule="nonzero"/></clipPath><clipPath id="44075189d4"><path d="M 75 0 L 300 0 C 341.421875 0 375 33.578125 375 75 L 375 296.917969 C 375 338.339844 341.421875 371.917969 300 371.917969 L 75 371.917969 C 33.578125 371.917969 0 338.339844 0 296.917969 L 0 75 C 0 33.578125 33.578125 0 75 0 Z M 75 0 " clip-rule="nonzero"/></clipPath></defs><g clip-path="url(#8de6552df8)"><g clip-path="url(#44075189d4)"><path fill="#f7fdf2" d="M 0 0 L 374.824219 0 L 374.824219 371.917969 L 0 371.917969 Z M 0 0 " fill-opacity="1" fill-rule="nonzero"/></g></g><g fill="#000000" fill-opacity="1"><g transform="translate(162.796869, 226.499985)"><g><path d="M 26.390625 0 L 26.390625 -13.59375 L 0.90625 -13.59375 L 0.90625 -27 L 17.09375 -85.984375 L 43.890625 -85.984375 L 43.890625 -27.890625 L 48.5 -27.890625 L 48.5 -13.59375 L 43.890625 -13.59375 L 43.890625 0 Z M 16.203125 -27.890625 L 26.390625 -27.890625 L 26.390625 -71.1875 Z M 16.203125 -27.890625 "/></g></g></g></svg>