<svg xmlns="http://www.w3.org/2000/svg" xmlns:xlink="http://www.w3.org/1999/xlink" width="500" zoomAndPan="magnify" viewBox="0 0 375 374.999991" height="500" preserveAspectRatio="xMidYMid meet" version="1.0"><defs><g/><clipPath id="c72efc280e"><path d="M 316.910156 230.277344 L 345.785156 230.277344 L 345.785156 259.15625 L 316.910156 259.15625 Z M 316.910156 230.277344 " clip-rule="nonzero"/></clipPath><clipPath id="f669546a95"><path d="M 331.347656 230.277344 C 323.375 230.277344 316.910156 236.742188 316.910156 244.714844 C 316.910156 252.691406 323.375 259.15625 331.347656 259.15625 C 339.324219 259.15625 345.785156 252.691406 345.785156 244.714844 C 345.785156 236.742188 339.324219 230.277344 331.347656 230.277344 Z M 331.347656 230.277344 " clip-rule="nonzero"/></clipPath></defs><g fill="#f5f4ff" fill-opacity="1"><g transform="translate(32.960732, 257.658714)"><g><path d="M 6.703125 -151.375 L 53.21875 -151.375 C 60.613281 -151.375 66.335938 -149.695312 70.390625 -146.34375 C 74.453125 -143 77.1875 -138.300781 78.59375 -132.25 C 80 -126.195312 80.703125 -118.472656 80.703125 -109.078125 C 80.703125 -100.503906 79.585938 -93.804688 77.359375 -88.984375 C 75.128906 -84.171875 71.253906 -80.828125 65.734375 -78.953125 C 70.316406 -78.003906 73.632812 -75.707031 75.6875 -72.0625 C 77.738281 -68.425781 78.765625 -63.492188 78.765625 -57.265625 L 78.421875 0 L 48.8125 0 L 48.8125 -59.203125 C 48.8125 -63.429688 47.988281 -66.132812 46.34375 -67.3125 C 44.695312 -68.488281 41.703125 -69.078125 37.359375 -69.078125 L 37.359375 0 L 6.703125 0 Z M 44.765625 -95.328125 C 48.992188 -95.328125 51.109375 -99.910156 51.109375 -109.078125 C 51.109375 -113.078125 50.929688 -116.070312 50.578125 -118.0625 C 50.222656 -120.0625 49.578125 -121.441406 48.640625 -122.203125 C 47.703125 -122.972656 46.347656 -123.359375 44.578125 -123.359375 L 37.53125 -123.359375 L 37.53125 -95.328125 Z M 44.765625 -95.328125 "/></g></g></g><g fill="#f5f4ff" fill-opacity="1"><g transform="translate(107.327694, 257.658714)"><g><path d="M 29.609375 1.40625 C 19.617188 1.40625 12.773438 -1.910156 9.078125 -8.546875 C 5.378906 -15.179688 3.53125 -24.664062 3.53125 -37 C 3.53125 -47.101562 4.847656 -54.859375 7.484375 -60.265625 C 10.128906 -65.671875 13.800781 -69.632812 18.5 -72.15625 C 23.195312 -74.6875 30.363281 -77.476562 40 -80.53125 L 48.453125 -83.34375 L 48.453125 -96.5625 C 48.453125 -99.96875 47.773438 -102.582031 46.421875 -104.40625 C 45.078125 -106.226562 43.46875 -107.140625 41.59375 -107.140625 C 39.945312 -107.140625 38.503906 -106.375 37.265625 -104.84375 C 36.035156 -103.320312 35.421875 -101.269531 35.421875 -98.6875 L 35.421875 -90.921875 L 5.46875 -90.921875 L 5.46875 -95.15625 C 5.46875 -107.84375 8.429688 -116.890625 14.359375 -122.296875 C 20.296875 -127.703125 29.957031 -130.40625 43.34375 -130.40625 C 54.039062 -130.40625 62.734375 -127.613281 69.421875 -122.03125 C 76.117188 -116.445312 79.46875 -108.546875 79.46875 -98.328125 L 79.46875 0 L 48.8125 0 L 48.8125 -15.328125 C 47.28125 -10.046875 44.84375 -5.9375 41.5 -3 C 38.15625 -0.0625 34.191406 1.40625 29.609375 1.40625 Z M 41.765625 -22.5625 C 44.109375 -22.5625 45.78125 -23.53125 46.78125 -25.46875 C 47.78125 -27.40625 48.28125 -29.78125 48.28125 -32.59375 L 48.28125 -68.546875 C 43.695312 -66.785156 40.316406 -64.550781 38.140625 -61.84375 C 35.972656 -59.144531 34.890625 -55.390625 34.890625 -50.578125 L 34.890625 -34.015625 C 34.890625 -26.378906 37.179688 -22.5625 41.765625 -22.5625 Z M 41.765625 -22.5625 "/></g></g></g><g fill="#f5f4ff" fill-opacity="1"><g transform="translate(182.751992, 257.658714)"><g><path d="M 32.78125 1.40625 C 24.675781 1.40625 19.09375 -0.296875 16.03125 -3.703125 C 12.976562 -7.109375 11.453125 -12.570312 11.453125 -20.09375 L 11.453125 -100.625 L 2.8125 -100.625 L 2.8125 -124.0625 L 11.453125 -124.0625 L 11.453125 -151.375 L 41.40625 -151.375 L 41.40625 -124.0625 L 50.21875 -124.0625 L 50.21875 -100.625 L 41.40625 -100.625 L 41.40625 -28.1875 C 41.40625 -25.957031 41.582031 -24.3125 41.9375 -23.25 C 42.289062 -22.195312 43.234375 -21.671875 44.765625 -21.671875 C 45.929688 -21.671875 47.039062 -21.726562 48.09375 -21.84375 C 49.15625 -21.96875 49.863281 -22.03125 50.21875 -22.03125 L 50.21875 -0.875 C 48.457031 -0.40625 45.898438 0.0859375 42.546875 0.609375 C 39.203125 1.140625 35.945312 1.40625 32.78125 1.40625 Z M 32.78125 1.40625 "/></g></g></g><g fill="#f5f4ff" fill-opacity="1"><g transform="translate(226.808186, 257.658714)"><g><path d="M 42.296875 1.40625 C 29.015625 1.40625 19.492188 -2.234375 13.734375 -9.515625 C 7.984375 -16.796875 5.109375 -27.660156 5.109375 -42.109375 L 5.109375 -93.921875 C 5.109375 -105.785156 8.515625 -114.832031 15.328125 -121.0625 C 22.140625 -127.289062 31.65625 -130.40625 43.875 -130.40625 C 68.664062 -130.40625 81.0625 -118.242188 81.0625 -93.921875 L 81.0625 -84.578125 C 81.0625 -75.179688 80.941406 -67.546875 80.703125 -61.671875 L 35.953125 -61.671875 L 35.953125 -36.65625 C 35.953125 -32.1875 36.421875 -28.6875 37.359375 -26.15625 C 38.296875 -23.632812 40.289062 -22.375 43.34375 -22.375 C 45.695312 -22.375 47.375 -23.078125 48.375 -24.484375 C 49.375 -25.898438 49.960938 -27.519531 50.140625 -29.34375 C 50.316406 -31.164062 50.40625 -33.835938 50.40625 -37.359375 L 50.40625 -49.875 L 81.0625 -49.875 L 81.0625 -42.46875 C 81.0625 -27.425781 78.148438 -16.351562 72.328125 -9.25 C 66.515625 -2.144531 56.503906 1.40625 42.296875 1.40625 Z M 50.40625 -77 L 50.40625 -93.578125 C 50.40625 -102.859375 48.113281 -107.5 43.53125 -107.5 C 38.351562 -107.5 35.765625 -102.859375 35.765625 -93.578125 L 35.765625 -77 Z M 50.40625 -77 "/></g></g></g><g clip-path="url(#c72efc280e)"><g clip-path="url(#f669546a95)"><path fill="#f5f4ff" d="M 316.910156 230.277344 L 345.785156 230.277344 L 345.785156 259.15625 L 316.910156 259.15625 Z M 316.910156 230.277344 " fill-opacity="1" fill-rule="nonzero"/></g></g></svg>