<svg xmlns="http://www.w3.org/2000/svg" xmlns:xlink="http://www.w3.org/1999/xlink" width="500" zoomAndPan="magnify" viewBox="0 0 375 374.999991" height="500" preserveAspectRatio="xMidYMid meet" version="1.0"><defs><g/><clipPath id="f1ee512834"><path d="M 0 0 L 375 0 L 375 371.917969 L 0 371.917969 Z M 0 0 " clip-rule="nonzero"/></clipPath><clipPath id="dfebb5e582"><path d="M 75 0 L 300 0 C 341.421875 0 375 33.578125 375 75 L 375 296.917969 C 375 338.339844 341.421875 371.917969 300 371.917969 L 75 371.917969 C 33.578125 371.917969 0 338.339844 0 296.917969 L 0 75 C 0 33.578125 33.578125 0 75 0 Z M 75 0 " clip-rule="nonzero"/></clipPath></defs><g clip-path="url(#f1ee512834)"><g clip-path="url(#dfebb5e582)"><path fill="#f7fdf2" d="M 0 0 L 374.824219 0 L 374.824219 371.917969 L 0 371.917969 Z M 0 0 " fill-opacity="1" fill-rule="nonzero"/></g></g><g fill="#000000" fill-opacity="1"><g transform="translate(162.796869, 226.499985)"><g><path d="M 24.703125 1.203125 C 17.828125 1.203125 12.359375 -0.476562 8.296875 -3.84375 C 4.234375 -7.21875 2.203125 -12.203125 2.203125 -18.796875 L 2.203125 -31.5 L 20.09375 -31.5 L 20.09375 -24.203125 C 20.09375 -21.265625 20.390625 -18.960938 20.984375 -17.296875 C 21.585938 -15.628906 22.828125 -14.796875 24.703125 -14.796875 C 26.429688 -14.796875 27.613281 -15.363281 28.25 -16.5 C 28.882812 -17.632812 29.203125 -19.300781 29.203125 -21.5 L 29.203125 -38.390625 C 29.203125 -41.128906 28.914062 -43.3125 28.34375 -44.9375 C 27.78125 -46.570312 26.597656 -47.390625 24.796875 -47.390625 C 21.523438 -47.390625 19.890625 -45.023438 19.890625 -40.296875 L 4.203125 -40.296875 L 4.203125 -85.984375 L 45.09375 -85.984375 L 45.09375 -69.890625 L 20.5 -69.890625 L 20.5 -57.796875 C 21.363281 -58.921875 22.53125 -59.847656 24 -60.578125 C 25.46875 -61.316406 27.132812 -61.6875 29 -61.6875 C 36.195312 -61.6875 41.109375 -59.15625 43.734375 -54.09375 C 46.367188 -49.03125 47.6875 -41.863281 47.6875 -32.59375 C 47.6875 -24.925781 47.132812 -18.707031 46.03125 -13.9375 C 44.9375 -9.175781 42.722656 -5.460938 39.390625 -2.796875 C 36.054688 -0.128906 31.160156 1.203125 24.703125 1.203125 Z M 24.703125 1.203125 "/></g></g></g></svg>