<svg xmlns="http://www.w3.org/2000/svg" xmlns:xlink="http://www.w3.org/1999/xlink" width="500" zoomAndPan="magnify" viewBox="0 0 375 374.999991" height="500" preserveAspectRatio="xMidYMid meet" version="1.0"><defs><g/><clipPath id="08ef59734d"><path d="M 0 0 L 375 0 L 375 371.917969 L 0 371.917969 Z M 0 0 " clip-rule="nonzero"/></clipPath><clipPath id="114a6d137f"><path d="M 75 0 L 300 0 C 341.421875 0 375 33.578125 375 75 L 375 296.917969 C 375 338.339844 341.421875 371.917969 300 371.917969 L 75 371.917969 C 33.578125 371.917969 0 338.339844 0 296.917969 L 0 75 C 0 33.578125 33.578125 0 75 0 Z M 75 0 " clip-rule="nonzero"/></clipPath></defs><g clip-path="url(#08ef59734d)"><g clip-path="url(#114a6d137f)"><path fill="#f7fdf2" d="M 0 0 L 374.824219 0 L 374.824219 371.917969 L 0 371.917969 Z M 0 0 " fill-opacity="1" fill-rule="nonzero"/></g></g><g fill="#000000" fill-opacity="1"><g transform="translate(162.796869, 226.499985)"><g><path d="M 3 -4.09375 C 3 -8.03125 3.613281 -11.664062 4.84375 -15 C 6.082031 -18.332031 7.597656 -21.332031 9.390625 -24 C 11.191406 -26.664062 13.5625 -29.796875 16.5 -33.390625 C 19.5 -37.128906 21.878906 -40.296875 23.640625 -42.890625 C 25.410156 -45.492188 26.910156 -48.476562 28.140625 -51.84375 C 29.378906 -55.207031 30 -58.859375 30 -62.796875 C 30 -65.128906 29.664062 -66.941406 29 -68.234375 C 28.332031 -69.535156 27.128906 -70.1875 25.390625 -70.1875 C 22.523438 -70.1875 21.09375 -67.617188 21.09375 -62.484375 L 21.09375 -51.984375 L 3 -51.984375 L 2.796875 -57.296875 C 2.796875 -63.828125 3.460938 -69.191406 4.796875 -73.390625 C 6.128906 -77.585938 8.460938 -80.785156 11.796875 -82.984375 C 15.128906 -85.179688 19.726562 -86.28125 25.59375 -86.28125 C 32.789062 -86.28125 38.351562 -84.265625 42.28125 -80.234375 C 46.21875 -76.203125 48.1875 -70.488281 48.1875 -63.09375 C 48.1875 -58.351562 47.535156 -54.066406 46.234375 -50.234375 C 44.941406 -46.410156 43.34375 -43.0625 41.4375 -40.1875 C 39.539062 -37.320312 37.023438 -33.957031 33.890625 -30.09375 C 31.628906 -27.363281 29.75 -24.929688 28.25 -22.796875 C 26.75 -20.660156 25.398438 -18.460938 24.203125 -16.203125 L 47.59375 -16.203125 L 47.59375 0 L 3 0 Z M 3 -4.09375 "/></g></g></g></svg>