<svg xmlns="http://www.w3.org/2000/svg" xmlns:xlink="http://www.w3.org/1999/xlink" width="500" zoomAndPan="magnify" viewBox="0 0 375 374.999991" height="500" preserveAspectRatio="xMidYMid meet" version="1.0"><defs><g/><clipPath id="4d34dc3a60"><path d="M 0 0 L 375 0 L 375 371.917969 L 0 371.917969 Z M 0 0 " clip-rule="nonzero"/></clipPath><clipPath id="2c4eeb6e90"><path d="M 75 0 L 300 0 C 341.421875 0 375 33.578125 375 75 L 375 296.917969 C 375 338.339844 341.421875 371.917969 300 371.917969 L 75 371.917969 C 33.578125 371.917969 0 338.339844 0 296.917969 L 0 75 C 0 33.578125 33.578125 0 75 0 Z M 75 0 " clip-rule="nonzero"/></clipPath></defs><g clip-path="url(#4d34dc3a60)"><g clip-path="url(#2c4eeb6e90)"><path fill="#f7fdf2" d="M 0 0 L 374.824219 0 L 374.824219 371.917969 L 0 371.917969 Z M 0 0 " fill-opacity="1" fill-rule="nonzero"/></g></g><g fill="#000000" fill-opacity="1"><g transform="translate(162.796869, 226.499985)"><g><path d="M 23.59375 1 C 16.0625 1 10.5625 -0.976562 7.09375 -4.9375 C 3.632812 -8.90625 1.90625 -14.957031 1.90625 -23.09375 L 1.90625 -32.09375 L 19.5 -32.09375 L 19.5 -23.09375 C 19.5 -20.5 19.832031 -18.484375 20.5 -17.046875 C 21.164062 -15.609375 22.5 -14.890625 24.5 -14.890625 C 25.894531 -14.890625 26.910156 -15.390625 27.546875 -16.390625 C 28.179688 -17.390625 28.5625 -18.570312 28.6875 -19.9375 C 28.820312 -21.3125 28.890625 -23.296875 28.890625 -25.890625 L 28.890625 -28 C 28.890625 -35.394531 26.457031 -39.09375 21.59375 -39.09375 C 20.726562 -39.09375 20.160156 -39.0625 19.890625 -39 L 19.890625 -54.390625 C 22.960938 -54.390625 25.265625 -55.070312 26.796875 -56.4375 C 28.328125 -57.800781 29.09375 -59.984375 29.09375 -62.984375 C 29.09375 -67.847656 27.691406 -70.28125 24.890625 -70.28125 C 23.160156 -70.28125 22.046875 -69.847656 21.546875 -68.984375 C 21.046875 -68.117188 20.710938 -67.019531 20.546875 -65.6875 C 20.378906 -64.351562 20.265625 -63.390625 20.203125 -62.796875 L 20.203125 -60.1875 L 2.40625 -60.1875 L 2.296875 -63.1875 C 2.367188 -71.050781 4.234375 -76.832031 7.890625 -80.53125 C 11.554688 -84.238281 17.191406 -86.09375 24.796875 -86.09375 C 39.390625 -86.09375 46.6875 -78.457031 46.6875 -63.1875 C 46.6875 -58.71875 46.085938 -55.164062 44.890625 -52.53125 C 43.691406 -49.90625 41.625 -48.0625 38.6875 -47 C 41.09375 -45.789062 42.878906 -44.300781 44.046875 -42.53125 C 45.210938 -40.769531 45.976562 -38.625 46.34375 -36.09375 C 46.707031 -33.5625 46.890625 -30.160156 46.890625 -25.890625 C 46.890625 -17.023438 45.039062 -10.328125 41.34375 -5.796875 C 37.644531 -1.265625 31.726562 1 23.59375 1 Z M 23.59375 1 "/></g></g></g></svg>