<svg xmlns="http://www.w3.org/2000/svg" xmlns:xlink="http://www.w3.org/1999/xlink" width="500" zoomAndPan="magnify" viewBox="0 0 375 374.999991" height="500" preserveAspectRatio="xMidYMid meet" version="1.0"><defs><g/><clipPath id="50f8c8f945"><path d="M 0 0 L 375 0 L 375 371.917969 L 0 371.917969 Z M 0 0 " clip-rule="nonzero"/></clipPath><clipPath id="308b93b734"><path d="M 75 0 L 300 0 C 341.421875 0 375 33.578125 375 75 L 375 296.917969 C 375 338.339844 341.421875 371.917969 300 371.917969 L 75 371.917969 C 33.578125 371.917969 0 338.339844 0 296.917969 L 0 75 C 0 33.578125 33.578125 0 75 0 Z M 75 0 " clip-rule="nonzero"/></clipPath></defs><g clip-path="url(#50f8c8f945)"><g clip-path="url(#308b93b734)"><path fill="#f7fdf2" d="M 0 0 L 374.824219 0 L 374.824219 371.917969 L 0 371.917969 Z M 0 0 " fill-opacity="1" fill-rule="nonzero"/></g></g><g fill="#000000" fill-opacity="1"><g transform="translate(170.941403, 226.499985)"><g><path d="M 11.796875 -66.1875 C 10.660156 -64.789062 9.078125 -63.65625 7.046875 -62.78125 C 5.015625 -61.914062 3.066406 -61.484375 1.203125 -61.484375 L 1.203125 -75.1875 C 4.128906 -75.65625 7.039062 -76.820312 9.9375 -78.6875 C 12.84375 -80.550781 14.929688 -82.984375 16.203125 -85.984375 L 30 -85.984375 L 30 0 L 11.796875 0 Z M 11.796875 -66.1875 "/></g></g></g></svg>