<svg xmlns="http://www.w3.org/2000/svg" xmlns:xlink="http://www.w3.org/1999/xlink" width="40" zoomAndPan="magnify" viewBox="0 0 30 30.000001" height="40" preserveAspectRatio="xMidYMid meet" version="1.0"><defs><clipPath id="b1648cc031"><path d="M 4 10 L 26 10 L 26 29.03125 L 4 29.03125 Z M 4 10 " clip-rule="nonzero"/></clipPath></defs><g clip-path="url(#b1648cc031)"><path fill="#ffffff" d="M 20.804688 29.03125 L 9.046875 29.03125 C 6.652344 29.03125 4.765625 27.074219 4.765625 24.75 L 4.765625 11.613281 C 4.765625 11.175781 5.054688 10.886719 5.492188 10.886719 C 5.925781 10.886719 6.21875 11.175781 6.21875 11.613281 L 6.21875 24.75 C 6.21875 26.347656 7.523438 27.582031 9.046875 27.582031 L 20.804688 27.582031 C 22.402344 27.582031 23.636719 26.273438 23.636719 24.75 L 23.636719 11.613281 C 23.636719 11.175781 23.925781 10.886719 24.363281 10.886719 C 24.796875 10.886719 25.089844 11.175781 25.089844 11.613281 L 25.089844 24.75 C 25.089844 27.074219 23.128906 29.03125 20.804688 29.03125 Z M 20.804688 29.03125 " fill-opacity="1" fill-rule="nonzero"/></g><path fill="#ffffff" d="M 24.652344 3.554688 L 19.136719 3.554688 C 18.773438 1.523438 17.03125 0 14.925781 0 C 12.824219 0 11.082031 1.523438 10.71875 3.554688 L 5.203125 3.554688 C 3.53125 3.554688 2.226562 4.863281 2.226562 6.53125 C 2.226562 8.203125 3.53125 9.433594 5.203125 9.433594 L 24.726562 9.433594 C 26.394531 9.433594 27.703125 8.128906 27.703125 6.460938 C 27.703125 4.789062 26.324219 3.554688 24.652344 3.554688 Z M 14.925781 1.453125 C 16.234375 1.453125 17.324219 2.324219 17.613281 3.554688 L 12.167969 3.554688 C 12.53125 2.324219 13.621094 1.453125 14.925781 1.453125 Z M 24.652344 7.984375 L 5.203125 7.984375 C 4.402344 7.984375 3.675781 7.332031 3.675781 6.460938 C 3.675781 5.660156 4.332031 4.933594 5.203125 4.933594 L 24.726562 4.933594 C 25.523438 4.933594 26.25 5.589844 26.25 6.460938 C 26.175781 7.332031 25.523438 7.984375 24.652344 7.984375 Z M 24.652344 7.984375 " fill-opacity="1" fill-rule="nonzero"/><path fill="#ffffff" d="M 9.847656 25.476562 C 9.410156 25.476562 9.121094 25.183594 9.121094 24.75 L 9.121094 12.628906 C 9.121094 12.195312 9.410156 11.902344 9.847656 11.902344 C 10.28125 11.902344 10.574219 12.195312 10.574219 12.628906 L 10.574219 24.75 C 10.574219 25.113281 10.210938 25.476562 9.847656 25.476562 Z M 9.847656 25.476562 " fill-opacity="1" fill-rule="nonzero"/><path fill="#ffffff" d="M 20.007812 25.476562 C 19.574219 25.476562 19.28125 25.183594 19.28125 24.75 L 19.28125 12.628906 C 19.28125 12.195312 19.574219 11.902344 20.007812 11.902344 C 20.445312 11.902344 20.734375 12.195312 20.734375 12.628906 L 20.734375 24.75 C 20.734375 25.113281 20.371094 25.476562 20.007812 25.476562 Z M 20.007812 25.476562 " fill-opacity="1" fill-rule="nonzero"/><path fill="#ffffff" d="M 14.925781 25.476562 C 14.492188 25.476562 14.203125 25.183594 14.203125 24.75 L 14.203125 12.628906 C 14.203125 12.195312 14.492188 11.902344 14.925781 11.902344 C 15.363281 11.902344 15.652344 12.195312 15.652344 12.628906 L 15.652344 24.75 C 15.652344 25.113281 15.289062 25.476562 14.925781 25.476562 Z M 14.925781 25.476562 " fill-opacity="1" fill-rule="nonzero"/></svg>